<?xml version="1.0" encoding="utf-8"?>
<!-- Generator: Adobe Illustrator 22.0.1, SVG Export Plug-In . SVG Version: 6.00 Build 0)  -->
<svg version="1.1" id="レイヤー_1" xmlns="http://www.w3.org/2000/svg" xmlns:xlink="http://www.w3.org/1999/xlink" x="0px"
	 y="0px" viewBox="0 0 24 24" style="enable-background:new 0 0 24 24;" xml:space="preserve">
<style type="text/css">
	.st0{fill:none;}
	.st1{fill:#00306C;}
</style>
<path class="st0" d="M0,0h24v24H0V0z"/>
<path class="st1" d="M12,2C6.5,2,2,6.5,2,12s4.5,10,10,10s10-4.5,10-10S17.5,2,12,2z M12,20c-4.4,0-8-3.6-8-8s3.6-8,8-8s8,3.6,8,8
	S16.4,20,12,20z M12.3,11.1c-1.8-0.4-2.3-0.9-2.3-1.7C10,8.6,10.8,8,12.1,8C13.4,8,14,8.7,14,9.7h1.7c-0.1-1.3-0.9-2.6-2.5-3V5h-2.3
	v1.7C9.4,7,8.2,8,8.2,9.5c0,1.8,1.5,2.7,3.7,3.2c1.9,0.5,2.3,1.1,2.3,1.9c0,0.5-0.4,1.4-2.1,1.4c-1.6,0-2.2-0.7-2.3-1.6H8
	c0.1,1.7,1.4,2.7,2.9,3V19h2.3v-1.7c1.5-0.3,2.7-1.2,2.7-2.8C16,12.4,14.1,11.6,12.3,11.1z"/>
</svg>
