<?xml version="1.0" encoding="utf-8"?>
<!-- Generator: Adobe Illustrator 22.0.1, SVG Export Plug-In . SVG Version: 6.00 Build 0)  -->
<svg version="1.1" id="レイヤー_1" xmlns="http://www.w3.org/2000/svg" xmlns:xlink="http://www.w3.org/1999/xlink" x="0px"
	 y="0px" viewBox="0 0 24 24" style="enable-background:new 0 0 24 24;" xml:space="preserve">
<style type="text/css">
	.st0{fill:none;}
	.st1{fill:#00306C;}
</style>
<path class="st0" d="M0,0h24v24H0V0z"/>
<path class="st1" d="M5,15v-3h3v-2H5V7H3v3H0v2h3v3H5z M12,13.8c-2.3,0-7,1.2-7,3.5V19h14v-1.8C19,14.9,14.3,13.8,12,13.8z M7.3,17
	c0.8-0.6,2.9-1.2,4.7-1.2s3.8,0.7,4.7,1.2H7.3z M12,12c1.9,0,3.5-1.6,3.5-3.5S13.9,5,12,5S8.5,6.6,8.5,8.5S10.1,12,12,12z M12,7
	c0.8,0,1.5,0.7,1.5,1.5S12.8,10,12,10s-1.5-0.7-1.5-1.5S11.2,7,12,7z M17,12c1.9,0,3.5-1.6,3.5-3.5S18.9,5,17,5
	c-0.2,0-0.5,0-0.7,0.1c0.8,0.9,1.2,2.1,1.2,3.4S17,11,16.3,11.9C16.5,12,16.8,12,17,12z M19.3,14c1,0.8,1.7,1.9,1.7,3.2V19h3v-1.8
	C24,15.6,21.6,14.5,19.3,14z"/>
</svg>
