<svg xmlns="http://www.w3.org/2000/svg" width="63.874" height="44.174" viewBox="0 0 63.874 44.174"><defs><style>.a{fill:#00306c;}</style></defs><g transform="translate(0 -78.954)"><path class="a" d="M48.184,78.954l-6.22,6.22.578.6c-.412.333-.829.657-1.234.946A9.721,9.721,0,0,1,39.6,87.737a1.085,1.085,0,0,1-.372.044,13.515,13.515,0,0,1-1.73-.2,17.649,17.649,0,0,0-2.672-.238,10.774,10.774,0,0,0-2.894.387,10.842,10.842,0,0,0-2.888-.386,17.381,17.381,0,0,0-2.673.238,13.481,13.481,0,0,1-1.728.2,1.025,1.025,0,0,1-.368-.044,10.116,10.116,0,0,1-1.841-1.112c-.364-.265-.735-.555-1.1-.853l.577-.6-6.22-6.22L0,95.2l6.22,6.22,1.821-1.886,4.019,3.508a9.07,9.07,0,0,0,.569,1.91c.159.383.334.753.512,1.1a4.088,4.088,0,0,0,2.766,6.149,4.1,4.1,0,0,0,4.1,4.06c.053,0,.107-.008.159-.01a4.093,4.093,0,0,0,4.074,3.621c.136,0,.271-.014.408-.027a3.736,3.736,0,0,0,5.677,2.718l1.865-1.16a7.494,7.494,0,0,0,1.157.617,6.239,6.239,0,0,0,2.415.513,4.747,4.747,0,0,0,2.754-.844,5.088,5.088,0,0,0,1.4-1.529c.059,0,.107.012.167.013a4.176,4.176,0,0,0,1.231-.189,6.291,6.291,0,0,0,1.291-.578,4.479,4.479,0,0,0,2.185-2.723,3.672,3.672,0,0,0,.73-.312,4.183,4.183,0,0,0,1.7-1.925,5.417,5.417,0,0,0,.481-2.228c0-.072-.009-.142-.012-.213a5.155,5.155,0,0,0,1.44-.891,4.65,4.65,0,0,0,1.045-1.3,3.524,3.524,0,0,0,.441-1.669,2.946,2.946,0,0,0-.261-1.218,3,3,0,0,0-.215-.358,14.67,14.67,0,0,0,.9-1.89,8.572,8.572,0,0,0,.46-1.639l4.19-3.657,1.964,2.034,6.22-6.221ZM17.309,109.079l-.072.046a1.116,1.116,0,0,1-1.18-1.895l2.464-1.531a1.111,1.111,0,0,1,1.536.359l1.269-.788-1.269.789a1.1,1.1,0,0,1,.168.584,1.127,1.127,0,0,1-.267.718l-2.116,1.315A4.142,4.142,0,0,0,17.309,109.079Zm3.29,4.03a1.1,1.1,0,0,1-.586.168,1.109,1.109,0,0,1-.854-1.828l2.117-1.318a4.084,4.084,0,0,0,.531-.4l.077-.047a1.092,1.092,0,0,1,.585-.168,1.116,1.116,0,0,1,.59,2.064Zm6.694,2.082-2.461,1.53a1.093,1.093,0,0,1-.586.168,1.116,1.116,0,0,1-.592-2.063l2.464-1.531a1.088,1.088,0,0,1,.585-.167,1.115,1.115,0,0,1,.59,2.063Zm3.815,2.5a.729.729,0,0,1,.113.391.748.748,0,0,1-.355.638l-2.113,1.313a.717.717,0,0,1-.393.113.747.747,0,0,1-.4-1.381h0l2.115-1.315a.723.723,0,0,1,.393-.114.742.742,0,0,1,.636.353l1.27-.787Zm16.432-9.277a1.914,1.914,0,0,1-.669.676,1.98,1.98,0,0,1-1.027.306,1.421,1.421,0,0,0-.36.052,4.115,4.115,0,0,1-.636-.195,6.675,6.675,0,0,1-1.687-1.011c-.215-.173-.385-.33-.5-.438l-.126-.125-.027-.028,0,0h0a1.121,1.121,0,0,0-1.649,1.517,9.573,9.573,0,0,0,1.523,1.286,8.312,8.312,0,0,0,1.651.889c.147.058.3.112.458.16a1.457,1.457,0,0,0,.165.28l0,0a1.222,1.222,0,0,1,.064.446,2.339,2.339,0,0,1-.359,1.252,1,1,0,0,1-.317.308.8.8,0,0,1-.416.1h-.072c-.043,0-.083.005-.125.007h0a4.6,4.6,0,0,1-2.544-.869,6.4,6.4,0,0,1-.779-.623c-.088-.083-.156-.152-.2-.195l-.044-.047-.007-.009h0a1.121,1.121,0,0,0-1.691,1.471h0a8,8,0,0,0,1.461,1.258,7.473,7.473,0,0,0,2.283,1.055c-.01.026-.016.053-.028.079a1.622,1.622,0,0,1-.745.807,3.423,3.423,0,0,1-.686.315,1.123,1.123,0,0,1-.355.057,3.835,3.835,0,0,1-.726-.1,1.313,1.313,0,0,0-.2-.022c-.024-.01-.048-.019-.074-.033a6.444,6.444,0,0,1-1.157-.759c-.167-.133-.309-.255-.407-.341l-.11-.1-.025-.024-.005,0a1.121,1.121,0,1,0-1.549,1.62,11.707,11.707,0,0,0,1.156.948c.118.083.248.167.377.251a2.152,2.152,0,0,1-.56.624,1.757,1.757,0,0,1-1.041.3,3.278,3.278,0,0,1-1.255-.278,4.445,4.445,0,0,1-.433-.227,3.724,3.724,0,0,0-3.277-4.681c0-.041.007-.081.007-.123a4.1,4.1,0,0,0-.618-2.164v0a4.1,4.1,0,0,0-3.49-1.941c-.053,0-.107.009-.159.011a4.1,4.1,0,0,0-.586-1.683h0a4.088,4.088,0,0,0-2.747-1.863,4.094,4.094,0,0,0-.616-2.122h0a4.1,4.1,0,0,0-5.653-1.321l-1.439.895c-.035-.079-.078-.156-.11-.235a5.146,5.146,0,0,1-.425-1.6l-.033-.631-4.815-4.2,9.129-9.455c.467.383.946.762,1.437,1.117A12.781,12.781,0,0,0,23.13,90.5a3.915,3.915,0,0,0,1.517.273,15.117,15.117,0,0,0,2.174-.238c.047-.008.1-.012.143-.019a23.993,23.993,0,0,0-2.595,2.636c-.618.725-1.139,1.409-1.552,1.967s-.722,1-.86,1.179a4.914,4.914,0,0,0-.978,3,4.628,4.628,0,0,0,.944,2.88,3.751,3.751,0,0,0,1.327,1.06,4.143,4.143,0,0,0,1.791.389,6.53,6.53,0,0,0,2.509-.565,46.534,46.534,0,0,1,7.766-2.431c1.073-.239,1.971-.406,2.6-.51l.314-.052,9.39,8.1,0,0,0,.005A.619.619,0,0,1,47.54,108.409Zm1.086-6.82-.033.631a4.8,4.8,0,0,1-.346,1.4c-.1.276-.232.554-.366.828l-8.224-7.089a1.5,1.5,0,0,0-1.164-.351,51.923,51.923,0,0,0-12.107,3.3,3.527,3.527,0,0,1-1.346.329,1.12,1.12,0,0,1-.5-.1.837.837,0,0,1-.388-.4,1.892,1.892,0,0,1-.182-.842,1.973,1.973,0,0,1,.347-1.166c.232-.3.516-.71.908-1.24a29.543,29.543,0,0,1,2.312-2.8A15.129,15.129,0,0,1,30.71,91.47a7.766,7.766,0,0,1,4.12-1.142,14.718,14.718,0,0,1,2.229.2,15.134,15.134,0,0,0,2.173.238,3.933,3.933,0,0,0,1.511-.27l.007,0a12.782,12.782,0,0,0,2.444-1.451c.488-.353.969-.734,1.433-1.116l8.987,9.307Z" transform="translate(0 0)"/></g></svg>