<svg xmlns="http://www.w3.org/2000/svg" width="43.273" height="50.155" viewBox="0 0 43.273 50.155"><defs><style>.a{fill:#00306c;}</style></defs><g transform="translate(-35.126)"><path class="a" d="M76.169,82.927a13.346,13.346,0,0,1-1.116.891c-.9.641-1.4.994-1.7,1.26a18.07,18.07,0,0,1,1.567,6.549H57.628V80.665H49.01a20.058,20.058,0,0,1,.873-1.835,12.679,12.679,0,0,1,3.206-4c.088-.069.177-.129.265-.193.537-.1,1.084-.171,1.636-.225-.032-.366-.054-.733-.054-1.1a12.764,12.764,0,0,1,.227-2.392,21.629,21.629,0,1,0,21.007,12ZM43.912,79.642a18.2,18.2,0,0,1,5.957-3.967,19.891,19.891,0,0,0-2.719,4.99H42.97C43.272,80.314,43.583,79.97,43.912,79.642ZM41.651,82.4h4.894a34.051,34.051,0,0,0-1.434,9.231h-6.5A18.061,18.061,0,0,1,41.651,82.4Zm-.708,19.04a18.048,18.048,0,0,1-2.333-8.078h6.507a34.672,34.672,0,0,0,1.109,8.078Zm2.969,3.908a18.315,18.315,0,0,1-1.855-2.177h4.686a23.967,23.967,0,0,0,1.619,3.814,17.416,17.416,0,0,0,1.511,2.332A18.216,18.216,0,0,1,43.912,105.344Zm11.985,5.3a18.36,18.36,0,0,1-2.543-.3c-.089-.064-.177-.125-.265-.193a15.267,15.267,0,0,1-4.473-6.828c-.018-.051-.035-.106-.054-.157H55.9Zm0-9.209H48.013a32.772,32.772,0,0,1-1.172-8.078H55.9Zm0-9.809H46.835A32.011,32.011,0,0,1,48.36,82.4H55.9v9.231Zm1.731,1.731H66.69a32.713,32.713,0,0,1-1.174,8.078H57.628Zm2.808,16.793c-.088.068-.177.129-.265.193a18.36,18.36,0,0,1-2.543.3v-7.478h7.337a21.416,21.416,0,0,1-1.323,2.989A12.7,12.7,0,0,1,60.436,110.152Zm9.178-4.808a18.23,18.23,0,0,1-5.958,3.968,20.259,20.259,0,0,0,2.879-5.392c.09-.244.171-.5.255-.753h4.679A18.374,18.374,0,0,1,69.614,105.344Zm2.968-3.908H67.312a34.782,34.782,0,0,0,1.1-8.078h6.5A18.055,18.055,0,0,1,72.582,101.436Z" transform="translate(0 -63.975)"/><path class="a" d="M276.706,17.019c2.2,1.562,2.687,1.934,3.462,3.412.612,1.17,1.606,3.221,1.606,3.221a.276.276,0,0,0,.494,0s.994-2.051,1.606-3.221c.773-1.478,1.26-1.85,3.462-3.412a9.339,9.339,0,1,0-10.63,0Zm5.314-11.63a3.951,3.951,0,1,1-3.95,3.95A3.951,3.951,0,0,1,282.021,5.389Z" transform="translate(-214.285)"/></g></svg>