<?xml version="1.0" encoding="utf-8"?>
<!-- Generator: Adobe Illustrator 22.0.1, SVG Export Plug-In . SVG Version: 6.00 Build 0)  -->
<svg version="1.1" id="レイヤー_1" xmlns="http://www.w3.org/2000/svg" xmlns:xlink="http://www.w3.org/1999/xlink" x="0px"
	 y="0px" viewBox="0 0 24 24" style="enable-background:new 0 0 24 24;" xml:space="preserve">
<style type="text/css">
	.st0{fill:none;}
	.st1{fill:#00306C;}
</style>
<path class="st0" d="M0,0h24v24H0V0z"/>
<path class="st1" d="M20,7h-4V5l-2-2h-4L8,5v2H4C2.9,7,2,7.9,2,9v5c0,0.8,0.4,1.4,1,1.7V19c0,1.1,0.9,2,2,2h14c1.1,0,2-0.9,2-2v-3.3
	c0.6-0.4,1-1,1-1.7V9C22,7.9,21.1,7,20,7z M10,5h4v2h-4V5z M4,9h16v5h-5v-3H9v3H4V9z M13,15h-2v-2h2V15z M19,19H5v-3h4v1h6v-1h4V19z
	"/>
</svg>
