<svg xmlns="http://www.w3.org/2000/svg" width="35.969" height="35.969" viewBox="0 0 35.969 35.969"><defs><style>.a{fill:#33cbcb;}</style></defs><path class="a" d="M17.985,0A17.984,17.984,0,1,0,35.969,17.984,17.986,17.986,0,0,0,17.985,0Zm0,31.615A13.6,13.6,0,0,1,6.446,10.764H29.523A13.606,13.606,0,0,1,17.985,31.615Z"/><path class="a" d="M114.665,224.911a5.042,5.042,0,0,0-1.615-1.969,4.1,4.1,0,0,0-4.825,0,5.033,5.033,0,0,0-1.615,1.971l1.662.782a3.211,3.211,0,0,1,1.019-1.256,2.256,2.256,0,0,1,2.693,0A3.224,3.224,0,0,1,113,225.695Z" transform="translate(-99.121 -206.549)"/><path class="a" d="M298.773,224.911a5.055,5.055,0,0,0-1.616-1.969,4.093,4.093,0,0,0-4.823,0,5.046,5.046,0,0,0-1.616,1.971l1.662.782a3.2,3.2,0,0,1,1.019-1.256,2.256,2.256,0,0,1,2.693,0,3.206,3.206,0,0,1,1.021,1.256Z" transform="translate(-270.295 -206.549)"/><path class="a" d="M167.781,330.985a7.1,7.1,0,0,0,12.395,0l-1.869-1.045a4.954,4.954,0,0,1-8.656,0Z" transform="translate(-155.994 -306.759)"/></svg>