<svg xmlns="http://www.w3.org/2000/svg" width="59.239" height="51.4" viewBox="0 0 59.239 51.4"><defs><style>.a,.b{fill:#00306c;}.a{stroke:#327ec2;stroke-miterlimit:10;stroke-width:3px;}</style></defs><path class="a" d="M371.8,236.063" transform="translate(-328.78 -212.67)"/><path class="b" d="M196.758,42.967l9.2-5.993,17.964,6.179-9.278,6.042,3.35,1.168,12.275-8-24.695-8.49L193.406,41.8Z" transform="translate(-171.029 -33.875)"/><path class="b" d="M35.6,154.836l-11.292,7.356L6.349,156.014l11.371-7.409-3.352-1.168L0,156.8l24.7,8.493L38.955,156Z" transform="translate(0 -134.299)"/><path class="b" d="M39.2,258.063l-14.228,9.265L0,258.739V261.7l25.357,8.721L39.2,261.407Z" transform="translate(0 -232.124)"/><path class="b" d="M406.594,153.21v3.343l12.2-7.945v-3.341Z" transform="translate(-359.551 -132.378)"/><path class="b" d="M39.2,314.656l-14.228,9.267L0,315.334V318.3l25.357,8.721L39.2,318Z" transform="translate(0 -282.169)"/><path class="b" d="M406.594,209.819v3.343l12.2-7.945v-3.341Z" transform="translate(-359.551 -182.437)"/><path class="b" d="M406.594,266.428v3.343l12.2-7.945v-3.341Z" transform="translate(-359.551 -232.496)"/><path class="b" d="M39.2,371.281l-14.228,9.267L0,371.957v2.965l25.357,8.721L39.2,374.626Z" transform="translate(0 -332.243)"/><path class="b" d="M147.706,112.563l-3.925,2.757,24.749,8.621v20.407l3.925-2.755V121.184Z" transform="translate(-127.145 -103.459)"/><path class="b" d="M168.364,166.33l.118,0,.118.014.116.022.114.031,1.311.4.1.034.089.042.072.042.06.049.047.051.034.052.022.052.009.058,0,.058-.014.058-.025.058-.036.06-.049.063-.056.061-.069.058-.076.058-.085.054-.092.054-.1.049-.1.042-.1.04-.107.034-.11.031-.114.022-.119.02-.118.013-.118.007h-.121l-.114-.007-.116-.016-.112-.02-.112-.031-1.309-.4-.1-.036-.092-.04-.074-.043-.061-.047-.049-.049-.033-.052-.022-.054-.005-.058,0-.058.013-.058.027-.06.036-.06.047-.061.058-.061.069-.06.076-.058.085-.054.092-.052.1-.047.1-.047.1-.04.107-.033.11-.029.114-.025.116-.018.114-.011.118-.005Zm1.275.812-1.294-.4-.1-.023-.1-.013-.1,0-.1.011-.1.018-.09.027-.083.038-.078.047-.063.051-.042.051-.022.051,0,.051.023.043.045.04.069.038.087.031,1.3.4.1.023.1.014.1,0,.1-.007.1-.022.09-.029.081-.04.076-.043.063-.052.045-.049.022-.049V167.3l-.022-.047-.045-.043-.065-.036-.088-.031" transform="translate(-147.457 -151.003)"/><path class="b" d="M132.831,191.122l.118.007.114.014.114.025.114.031,1.311.4.1.033.09.04.076.043.06.047.047.051.034.052.022.054.009.056,0,.058-.014.058-.029.061-.04.061-.045.061-.054.058-.069.061-.076.054-.087.06-.094.052-.1.047-.1.043-.1.04-.107.033-.11.029-.116.025-.118.018-.118.014-.118.007h-.121l-.118-.007-.114-.016-.112-.023-.11-.029-1.309-.4-.109-.038-.09-.036-.076-.045-.058-.045-.049-.052-.034-.052-.02-.054-.005-.058,0-.058.014-.06.027-.06.036-.058.047-.061.058-.06.065-.06.08-.061.087-.054.09-.051.1-.047.1-.043.109-.042.109-.034.112-.031.112-.023.116-.018.116-.011.118-.007h.121Zm1.274.815-1.3-.4-.1-.023-.1-.013-.1,0-.1.009-.1.018-.09.029-.085.036-.078.047-.061.051-.042.051-.022.051,0,.051.022.043.043.043.065.036.089.036,1.3.394.1.025.1.011.1,0,.1-.005.1-.022.09-.031.081-.038.078-.047.063-.051.043-.051.022-.047V192.1l-.023-.047-.043-.043-.065-.038-.087-.033" transform="translate(-116.032 -172.928)"/><path class="b" d="M115.024,203.563l.118.007.116.011.118.025.114.029,1.309.4.1.033.089.043.072.043.058.047.051.051.034.051.02.054.007.058v.058l-.014.058-.027.06-.036.06-.049.063-.058.06-.067.061-.078.056-.083.056-.092.051-.1.049-.109.045-.1.04-.109.033-.11.031-.114.023-.118.018-.118.014-.119.007h-.121l-.114-.007-.116-.016-.112-.023-.112-.029-1.309-.4-.107-.038-.09-.04-.076-.043-.06-.043-.049-.054-.031-.052-.02-.056-.009-.056,0-.056.016-.06.025-.06.036-.058.051-.063.058-.061.065-.06.078-.058.085-.054.092-.051.1-.049.1-.045.1-.04.107-.036.11-.027.114-.023.116-.018.118-.014.118,0h.119Zm1.274.815-1.3-.4-.1-.025-.1-.013-.1,0-.1.009-.1.018-.09.029-.087.04-.076.047-.063.051-.042.051-.02.051,0,.047.018.047.045.04.067.04.087.033,1.3.394.1.025.1.013.1,0,.1-.007.1-.02.089-.029.081-.038.076-.047.063-.051.045-.051.023-.051,0-.047-.025-.047-.045-.04-.067-.04-.087-.031" transform="translate(-100.285 -183.93)"/><path class="b" d="M98.416,216.75l3.115.951-.493.345-2.5-.765,0,.553-.607-.186,0-.553Z" transform="translate(-86.592 -195.591)"/><path class="b" d="M150.583,178.72l.116.005.118.013.116.025.116.029,1.309.4.1.036.089.04.074.043.058.049.051.049.034.052.018.056.009.054,0,.058-.014.06-.025.058-.036.06-.047.061-.056.061-.069.06-.078.06-.085.054-.09.051-.1.047-.1.043-.109.041-.109.034-.112.029-.114.025-.116.018-.118.013-.116.005-.119,0-.118-.005-.118-.014-.114-.022-.11-.029-1.309-.4-.107-.04-.089-.038-.076-.045-.058-.047-.049-.051-.034-.051-.022-.054-.007-.058,0-.058.016-.058.025-.061.042-.061.047-.058.056-.061.065-.058.076-.058.087-.056.094-.052.1-.047.1-.045.1-.038.109-.036.11-.029.114-.022.116-.018.118-.014.118-.007Zm1.273.813-1.294-.4-.1-.023-.1-.014-.1,0-.1.007-.1.022-.09.027-.085.038-.08.047-.063.052-.04.049-.022.051,0,.047.02.047.043.043.067.036.089.033,1.3.394.1.025.1.014h.1l.1-.007L151.7,180l.089-.027.081-.038.076-.047.067-.051.043-.051.023-.051,0-.047-.025-.047-.045-.04-.067-.036-.088-.032" transform="translate(-131.73 -161.958)"/><path class="b" d="M273.177,95.438l.069-.045.083-.056.1-.063.114-.07.125-.078.136-.087.148-.1.159-.116.116-.085.123-.092.127-.1.134-.109.069-.058.069-.054.065-.051.065-.047a3.565,3.565,0,0,1,.625-.376,2.147,2.147,0,0,1,.463-.157,1.11,1.11,0,0,1,.291-.027l.112.014.023-.065.038-.058.054-.061.07-.058a1.773,1.773,0,0,1,.573-.248,3.781,3.781,0,0,1,.815-.118,3.912,3.912,0,0,1,.9.069,2.7,2.7,0,0,1,.844.307l.132.087.114.094.1.1.081.1.1.034.206,0,.208.027.2.061.179.1.146.123.107.123.083.134.069.148.1.1.09.109.078.114.065.118.074.065a1,1,0,0,1,.347.38,1.759,1.759,0,0,1,.127.387.98.98,0,0,0,.6.73,1.014,1.014,0,0,0,.606-.06c.282-.078.634-.193,1.032-.287a5.189,5.189,0,0,1,1.309-.145,3.391,3.391,0,0,1,1.439.358l.011.112a.982.982,0,0,1-.2.38,5.539,5.539,0,0,1-.721.754,19.7,19.7,0,0,1-1.56,1.242c-.7.51-1.266.886-1.728,1.164a9.235,9.235,0,0,1-1.088.568,2.766,2.766,0,0,1-.575.188.7.7,0,0,1-.184.014,1.613,1.613,0,0,1-.844-.8,1.2,1.2,0,0,1-.005-.806,6.9,6.9,0,0,1,.271-.667c.074-.183.1-.316-.014-.374a1.975,1.975,0,0,0-.654-.2,4.47,4.47,0,0,0-.64-.023c-.213,0-.428.011-.649,0a2.424,2.424,0,0,1-.678-.139l-.186-.06-.181-.04-.174-.022-.165-.014c-.116-.005-.221-.011-.32-.018s-.19-.014-.278-.025-.174-.025-.258-.043a2.02,2.02,0,0,1-.266-.072.921.921,0,0,1-.231-.112l-.145-.137-.067-.152.007-.152-.065-.058a3.923,3.923,0,0,1-1.085-.239,3.5,3.5,0,0,1-.768-.4,3.416,3.416,0,0,1-.486-.407c-.119-.121-.2-.213-.235-.255l-.033-.051,0-.047.036-.051Z" transform="translate(-241.474 -86.22)"/></svg>