<?xml version="1.0" encoding="utf-8"?>
<!-- Generator: Adobe Illustrator 22.0.1, SVG Export Plug-In . SVG Version: 6.00 Build 0)  -->
<svg version="1.1" id="レイヤー_1" xmlns="http://www.w3.org/2000/svg" xmlns:xlink="http://www.w3.org/1999/xlink" x="0px"
	 y="0px" viewBox="0 0 24 24" style="enable-background:new 0 0 24 24;" xml:space="preserve">
<style type="text/css">
	.st0{fill:none;}
	.st1{fill:#00306C;}
</style>
<path class="st0" d="M0,0h24v24H0V0z"/>
<path class="st1" d="M12,6c1.1,0,2,0.9,2,2s-0.9,2-2,2s-2-0.9-2-2S10.9,6,12,6 M12,15c2.7,0,5.8,1.3,6,2v1H6v-1
	C6.2,16.3,9.3,15,12,15 M12,4C9.8,4,8,5.8,8,8s1.8,4,4,4s4-1.8,4-4S14.2,4,12,4z M12,13c-2.7,0-8,1.3-8,4v3h16v-3
	C20,14.3,14.7,13,12,13z"/>
</svg>
