<svg xmlns="http://www.w3.org/2000/svg" width="50.03" height="49.994" viewBox="0 0 50.03 49.994"><defs><style>.a{fill:#00306c;}</style></defs><rect class="a" width="6.731" height="18.846" transform="translate(12.227 17.574)"/><rect class="a" width="6.731" height="13.461" transform="translate(31.072 22.959)"/><rect class="a" width="6.731" height="22.884" transform="translate(21.65 13.536)"/><path class="a" d="M406.71,97.4l6.006-.9a24.95,24.95,0,0,0-5.9-11.7L402.523,89.1A18.878,18.878,0,0,1,406.71,97.4Z" transform="translate(-363.19 -76.538)"/><path class="a" d="M451.35,231.719l-6.005.894c.037.482.061.969.061,1.46a19.041,19.041,0,0,1-.5,4.315l5.8,1.8a25.007,25.007,0,0,0,.756-6.114C451.464,233.279,451.422,232.494,451.35,231.719Z" transform="translate(-401.434 -209.095)"/><path class="a" d="M38.42,38.571A18.957,18.957,0,1,1,23.666,6.262V.188A25.012,25.012,0,1,0,48.477,33.853l-5.8-1.8A19,19,0,0,1,38.42,38.571Z" transform="translate(0 -0.188)"/><path class="a" d="M285.121,6.555A24.935,24.935,0,0,0,269.754.189V6.262a18.843,18.843,0,0,1,11.073,4.588Z" transform="translate(-243.395 -0.189)"/></svg>