<?xml version="1.0" encoding="utf-8"?>
<!-- Generator: Adobe Illustrator 22.0.1, SVG Export Plug-In . SVG Version: 6.00 Build 0)  -->
<svg version="1.1" id="レイヤー_1" xmlns="http://www.w3.org/2000/svg" xmlns:xlink="http://www.w3.org/1999/xlink" x="0px"
	 y="0px" viewBox="0 0 24 24" style="enable-background:new 0 0 24 24;" xml:space="preserve">
<style type="text/css">
	.st0{fill:none;}
	.st1{fill:#00306C;}
</style>
<path class="st0" d="M0,0h24v24H0V0z"/>
<path class="st1" d="M9,13c2.2,0,4-1.8,4-4s-1.8-4-4-4S5,6.8,5,9S6.8,13,9,13z M9,7c1.1,0,2,0.9,2,2s-0.9,2-2,2s-2-0.9-2-2
	S7.9,7,9,7z M9,15c-2.7,0-8,1.3-8,4v2h16v-2C17,16.3,11.7,15,9,15z M3,19c0.2-0.7,3.3-2,6-2c2.7,0,5.8,1.3,6,2H3z M15.1,7.1
	c0.8,1.2,0.8,2.7,0,3.9l1.7,1.7c2-2,2-5.1,0-7.3C16.8,5.4,15.1,7.1,15.1,7.1z M20.1,2l-1.6,1.6c2.8,3,2.8,7.6,0,10.7l1.6,1.6
	C24,12.1,24,6.1,20.1,2z"/>
</svg>
