<svg xmlns="http://www.w3.org/2000/svg" width="152.005" height="51.518" viewBox="0 0 152.005 51.518"><defs><style>.a{fill:#0e3159;}</style></defs><g transform="translate(0 0.01)"><path class="a" d="M10.659,1.26a26.987,26.987,0,0,1-.2,3.958,31.77,31.77,0,0,1-.8,4.486,21.561,21.561,0,0,1,2.44.23c.895.108,1.735.23,2.562.38V5.868h1.884V10.68l1.125.244.908.217.8.217-.312,1.586-2.711-.637a17.58,17.58,0,0,1-.488,1.938,17.362,17.362,0,0,1-.732,1.843,17.7,17.7,0,0,1-1.057,1.884,22.235,22.235,0,0,1-1.437,2.006l-1.464-1.125c.5-.637.949-1.247,1.355-1.816a12.944,12.944,0,0,0,.962-1.694,12.09,12.09,0,0,0,.651-1.667,11.751,11.751,0,0,0,.339-1.748A37.543,37.543,0,0,0,9.06,11.29,16.386,16.386,0,0,1,7.38,15.031a4.8,4.8,0,0,1-1.952,1.843,3.239,3.239,0,0,1-1.626.3,2.562,2.562,0,0,1-1.518-.6,3.144,3.144,0,0,1-.922-1.355,3.714,3.714,0,0,1-.081-1.83,3.8,3.8,0,0,1,.6-1.545A4.337,4.337,0,0,1,2.947,10.8,5.259,5.259,0,0,1,4.3,10.151a9,9,0,0,1,1.355-.339,8.593,8.593,0,0,1,1.22-.136h.908a34.263,34.263,0,0,0,.691-3.4,28.626,28.626,0,0,0,.352-3.28H3.8V1.26ZM4.587,15.315a2.846,2.846,0,0,0,1.355-1.26,14.191,14.191,0,0,0,1.274-2.711l-1.125.136a5.869,5.869,0,0,0-1.355.366,3.809,3.809,0,0,0-1.1.732,2.087,2.087,0,0,0-.6,1.355,1.355,1.355,0,0,0,.339,1.247,1.111,1.111,0,0,0,1.206.136Z" transform="translate(0.427 0.451)"/><path class="a" d="M32.478,19.719l-.773.149-.786.095h-.678a5.95,5.95,0,0,1-1.233-.122,7.048,7.048,0,0,1-1.152-.352A3.185,3.185,0,0,1,26.27,18a5.611,5.611,0,0,1-.556-2.711v-2.1a1.965,1.965,0,0,0-.271-1.166,1.355,1.355,0,0,0-1.057-.339H21.676l-3.388,8.241-1.667-.678L24.251.5l1.654.678L22.34,10.069h2.047a3.348,3.348,0,0,1,2.44.827,3.307,3.307,0,0,1,.84,2.44v2.277a5.422,5.422,0,0,0,.081,1.03,2.711,2.711,0,0,0,.23.678,1.206,1.206,0,0,0,.312.393,1.653,1.653,0,0,0,.352.217,4.175,4.175,0,0,0,1.681.312,8.241,8.241,0,0,0,1.355-.122l1.491-.271v1.708Z" transform="translate(5.906 0.181)"/><path class="a" d="M31.86,15.468A56.207,56.207,0,0,0,36.292,4.91H33.27V3.2h3.592c.176-.664.339-1.288.5-1.857s.271-1.017.366-1.355l1.762.42a11.128,11.128,0,0,0-.3,1.1c-.122.5-.285,1.057-.461,1.681h3.253V4.91H38.2Q37.268,8,36.116,10.847a60.8,60.8,0,0,1-2.711,5.53ZM47.813,8.542a1.816,1.816,0,0,0-1.532.827,4.256,4.256,0,0,0-.542,2.589v3.05a16.007,16.007,0,0,1,2.141.976c.7.379,1.518.84,2.467,1.355l-.881,1.477-1.125-.678-.949-.542c-.285-.163-.569-.3-.84-.434l-.813-.393a3.361,3.361,0,0,1-.908,2.711,3.714,3.714,0,0,1-2.629.84,6,6,0,0,1-1.735-.271,4.513,4.513,0,0,1-1.532-.827,3.131,3.131,0,0,1-.962-1.274,2.223,2.223,0,0,1,0-1.694A2.711,2.711,0,0,1,39.1,14.9a4.934,4.934,0,0,1,2.128-.678,6.953,6.953,0,0,1,.7,0,3.2,3.2,0,0,1,.623,0l.637.081.786.163V11.89a5.422,5.422,0,0,1,.271-2.033A4.066,4.066,0,0,1,45.1,8.5H43.516a6.262,6.262,0,0,0-1.125.19,3.537,3.537,0,0,0-.908.366q-.42.217-.976.569l-.895-1.355a9.406,9.406,0,0,1,2.169-1.044,6.384,6.384,0,0,1,2.169-.271l5.489.095V8.542ZM44.1,16.132a7.333,7.333,0,0,0-2.02-.325,5.421,5.421,0,0,0-.745.068,4.622,4.622,0,0,0-.8.176,1.586,1.586,0,0,0-.718.474,1.017,1.017,0,0,0-.23.623,1.03,1.03,0,0,0,.352.8,2.535,2.535,0,0,0,.813.461,4.392,4.392,0,0,0,.881.217h.61a1.667,1.667,0,0,0,1.491-.556,2.711,2.711,0,0,0,.366-1.545Z" transform="translate(11.322 0)"/><path class="a" d="M57.72,17.034a13.174,13.174,0,0,0,2.155-.366,6.411,6.411,0,0,0,3.375-2.006A7.6,7.6,0,0,0,64.47,12.8a6.465,6.465,0,0,0,.827-3.28A6.3,6.3,0,0,0,64.28,6.394a5.991,5.991,0,0,0-2.033-2.006A7.184,7.184,0,0,0,59.4,3.48a23.786,23.786,0,0,1-.285,3.2,25.414,25.414,0,0,1-.6,2.887c-.095.42-.217.881-.352,1.355s-.312.989-.5,1.5S57.246,13.469,57,14a10.246,10.246,0,0,1-.854,1.5,4.812,4.812,0,0,1-1.355,1.355,3.9,3.9,0,0,1-1.464.583,3.334,3.334,0,0,1-1.464-.122,3.619,3.619,0,0,1-1.26-.745,4.5,4.5,0,0,1-.962-1.355,6.452,6.452,0,0,1-.529-1.477,9.489,9.489,0,0,1-.2-1.45V11.07a9.717,9.717,0,0,1,9.732-9.42,8.769,8.769,0,0,1,4.066.962,7.671,7.671,0,0,1,3.009,2.711,8.051,8.051,0,0,1,1.355,4.066,8.512,8.512,0,0,1-.895,4.188,8.9,8.9,0,0,1-3.429,3.809,10.721,10.721,0,0,1-5.015,1.355ZM56.744,9.1q.285-1.355.488-2.711c.122-.935.217-1.911.271-2.928a7.522,7.522,0,0,0-2.25.732A7.78,7.78,0,0,0,53.1,5.757a8.417,8.417,0,0,0-2.3,5.516,4.256,4.256,0,0,0,0,.759,5.585,5.585,0,0,0,.122,1.125,5.8,5.8,0,0,0,.352,1.206,3.294,3.294,0,0,0,.678,1.057,1.233,1.233,0,0,0,1.355.325,2.711,2.711,0,0,0,1.274-1.152,11.737,11.737,0,0,0,1.355-2.711C56.256,10.88,56.527,9.958,56.744,9.1Z" transform="translate(17.381 0.59)"/><path class="a" d="M4.337,32.429c-.42,1.193-.881,2.385-1.355,3.565A19.585,19.585,0,0,1,1,39.4L0,37.62a29,29,0,0,0,4.066-8.7H.407V27.17H4.337V23.51l-3.09.556-.84-1.613a33.424,33.424,0,0,0,4.066-.813A29.479,29.479,0,0,0,8.39,20.285l1.355,1.681A35.238,35.238,0,0,1,6.14,23.022h0v4.066H9.8V28.8H6.126v1.87q1.044.895,1.952,1.83c.61.623,1.206,1.288,1.789,1.965L8.729,36.386c-.434-.637-.854-1.247-1.274-1.83A19.49,19.49,0,0,0,6.1,32.917V43.949H4.337ZM16.4,25.787c.474-.922.895-1.87,1.355-2.86A26.282,26.282,0,0,0,18.677,20l1.979.786q-.5,1.22-1.1,2.521T18.3,25.828H21.9V33.96H18.731v7.075c0,.407.095.623.271.678a2.521,2.521,0,0,0,.7.081h.19a3.2,3.2,0,0,0,.786-.095.759.759,0,0,0,.569-.5,2.711,2.711,0,0,0,.095-.583,4.228,4.228,0,0,1,.068-.895V37.972l1.87.732v.989a11.765,11.765,0,0,1-.136,1.355,9.366,9.366,0,0,1-.285,1.355,1.681,1.681,0,0,1-.474.867,1.22,1.22,0,0,1-.542.285,3.754,3.754,0,0,1-.678.136,6.165,6.165,0,0,1-.7,0H18.745a2.629,2.629,0,0,1-.949-.2,1.355,1.355,0,0,1-.664-.556,1.979,1.979,0,0,1-.244-1.084V33.893H14.909a21.009,21.009,0,0,1-.23,3.172,10.409,10.409,0,0,1-.8,2.711A8.783,8.783,0,0,1,12.2,42.133a10.843,10.843,0,0,1-2.575,2.006L8.349,42.513a8.7,8.7,0,0,0,2.277-1.6,7.007,7.007,0,0,0,1.355-1.965,8.512,8.512,0,0,0,.718-2.331,17.132,17.132,0,0,0,.2-2.711H10.491V25.774Zm-3.226-.542q-.393-1.084-.854-2.114A14.76,14.76,0,0,0,11.2,21.125l1.681-.895c.42.678.8,1.355,1.152,2.033a18.053,18.053,0,0,1,.881,2.114l-1.708.867Zm6.939,7.021v-4.8H12.307v4.8Z" transform="translate(0 7.111)"/><path class="a" d="M25.123,30.482v6.126L26.858,36l1.708-.61L28.7,37c-1.355.556-2.711,1.071-3.958,1.559s-2.711.908-4.066,1.355L20,38.045q1.708-.407,3.416-.895h0V30.482H20.7V28.8h2.711V23.244H20.434V21.536h7.915v1.708H25.123V28.8h2.711v1.681Zm17.1,5.584v1.626H36.454V41h6.777V42.68H27.509V41h7.129V37.692h-5.5V36.066h5.5V32.948H29.6V20.75h12.09v12.2H36.454v3.117ZM31.385,22.349v3.632h3.361V22.349Zm0,5.2v3.768h3.361V27.554Zm8.62-1.572V22.349H36.4v3.632Zm0,5.34V27.554H36.4v3.768Z" transform="translate(7.107 7.377)"/><path class="a" d="M59.593,27.175v1.87H50.3V40.227h8.349V42.1h-18.6v-1.87h8.132V29.046H39.1v-1.87h9.135V20.29H50.3v6.885Z" transform="translate(13.895 7.214)"/><path class="a" d="M61.446,31.063q-.6,2.033-1.355,4.066a26.823,26.823,0,0,1-1.9,3.863L57,36.918a27.108,27.108,0,0,0,2.507-4.649,33.708,33.708,0,0,0,1.64-5.042H57.542V25.493h3.9V19.8h1.816v5.693H66.84v1.762H63.262v2.6c.718.637,1.355,1.274,2.074,1.925a25.167,25.167,0,0,1,1.884,2.087l-1.111,2.006c-.447-.678-.908-1.355-1.355-1.965s-.949-1.233-1.477-1.83V44.142h-1.83Zm8.132,10.653v1.9H67.843V21.521h11.25V43.614H77.331V41.757Zm0-18.514v4.391h7.753V23.2Zm0,6.018v4.4h7.753v-4.4Zm0,6.045V40.09h7.753V35.265Z" transform="translate(20.256 7.04)"/><path class="a" d="M76.2,24.44h8.783v1.626H76.2Zm.732,19.68V35.093h7.129v7.671H78.64V44.12Zm.352-23.258h6.452v1.626H77.284Zm0,7.129h6.452v1.586H77.284Zm0,3.551h6.452v1.626H77.284Zm1.355,5.123v4.527h3.714V36.665Zm19.382,7.292a12.862,12.862,0,0,1-3.89-2.629,9.311,9.311,0,0,1-2.345-3.985,8.715,8.715,0,0,1-2.141,4.432,10.843,10.843,0,0,1-4.229,2.711l-1.193-1.654a8.322,8.322,0,0,0,3.009-1.355,7.346,7.346,0,0,0,1.979-2.169A9.04,9.04,0,0,0,90.3,36.489a15.967,15.967,0,0,0,.325-3.294V30.485h1.843V33.06a9.067,9.067,0,0,0,1.762,5.733,9.826,9.826,0,0,0,5.042,3.321ZM92.464,21.539v2.318a14.543,14.543,0,0,1-.312,2.291A51.8,51.8,0,0,1,98.97,31L97.8,32.707q-1.491-1.355-3.05-2.6c-1.044-.813-2.1-1.6-3.185-2.385a10.287,10.287,0,0,1-2.494,3.294,14.434,14.434,0,0,1-3.524,2.236l-1.111-1.681a10.531,10.531,0,0,0,3.565-1.884,6.777,6.777,0,0,0,1.857-2.507,9.487,9.487,0,0,0,.7-3.144c0-1.152.108-2.44.108-3.849V19.75h1.789Zm-6.777,5.421a12.945,12.945,0,0,0,1-2.413,13.339,13.339,0,0,0,.515-2.575l1.708.488a26.387,26.387,0,0,1-.651,2.86A16.17,16.17,0,0,1,87.178,28.1l-1.464-1.139Zm0,10.843A12.063,12.063,0,0,0,87.4,33.222l1.708.515a20.928,20.928,0,0,1-.759,2.711,14.124,14.124,0,0,1-1.193,2.507l-1.437-1.111Zm7.97-11.927a16.919,16.919,0,0,0,1.355-2.141,18.7,18.7,0,0,0,1.166-2.291l1.735.949c-.42.759-.854,1.518-1.355,2.277s-.989,1.518-1.572,2.277Zm.325,10.978a19.138,19.138,0,0,0,2.2-4.066l1.708.895q-.5,1.057-1.139,2.114a18.487,18.487,0,0,1-1.355,2.06Z" transform="translate(27.079 7.022)"/><path class="a" d="M98.621,34.536c0,.813-.081,1.64-.149,2.467a21.145,21.145,0,0,1-.312,2.467,13.174,13.174,0,0,1-.637,2.385,10.464,10.464,0,0,1-1.1,2.25L95.07,42.749a12.092,12.092,0,0,0,1.017-2.291,14.163,14.163,0,0,0,.542-2.331,19.967,19.967,0,0,0,.217-2.4V26.336h8.376v9.84h-1.789v-1.64ZM95.612,21.117h10.762v1.789H95.612Zm7.807,6.926H98.648v4.934h4.771Zm5.855,1.87v3.754a26.836,26.836,0,0,1-.339,3.754,15.818,15.818,0,0,1-.962,3.538,11.968,11.968,0,0,1-1.911,3.212l-1.437-1.355a10.274,10.274,0,0,0,1.64-2.711,14.285,14.285,0,0,0,.854-3,20.1,20.1,0,0,0,.325-3.144c0-1.057,0-2.128,0-3.2V22.093a37.787,37.787,0,0,0,4.066-.637,22.554,22.554,0,0,0,4.066-1.206l1.355,1.681a36.338,36.338,0,0,1-3.8,1c-1.274.271-2.575.5-3.9.678h0v4.432h8.986v1.762h-3.375V43.589H113V29.846Z" transform="translate(33.785 7.2)"/></g></svg>